<?xml version="1.0" encoding="iso-8859-1"?>
<!-- Generator: Adobe Illustrator 18.0.0, SVG Export Plug-In . SVG Version: 6.00 Build 0)  -->
<!DOCTYPE svg PUBLIC "-//W3C//DTD SVG 1.1//EN" "http://www.w3.org/Graphics/SVG/1.1/DTD/svg11.dtd">
<svg version="1.1" id="Capa_1" xmlns="http://www.w3.org/2000/svg" xmlns:xlink="http://www.w3.org/1999/xlink" x="0px" y="0px"
	 viewBox="0 0 56 56" style="enable-background:new 0 0 56 56;" xml:space="preserve">
<g>
	<path d="M18,34.486v4.028C18,38.782,18.218,39,18.486,39h19.028C37.782,39,38,38.782,38,38.514v-4.028
		C38,33.115,39.115,32,40.486,32h15.228L45.713,3H10.287l-10,29h15.227C16.885,32,18,33.115,18,34.486z M14,8h28v6h-2v-4H16v4h-2V8z
		 M11,16h34v6h-2v-4H13v4h-2V16z M10,30H8v-6h40v6h-2v-4H10V30z" fill='#979797'/>
	<path d="M40,34.486v4.028C40,39.885,38.885,41,37.514,41H18.486C17.115,41,16,39.885,16,38.514v-4.028
		C16,34.218,15.782,34,15.514,34H0v15.375C0,51.374,1.626,53,3.625,53h48.749C54.374,53,56,51.374,56,49.375V34H40.486
		C40.218,34,40,34.218,40,34.486z" fill='#979797'/>
</g>
<g>
</g>
<g>
</g>
<g>
</g>
<g>
</g>
<g>
</g>
<g>
</g>
<g>
</g>
<g>
</g>
<g>
</g>
<g>
</g>
<g>
</g>
<g>
</g>
<g>
</g>
<g>
</g>
<g>
</g>
</svg>
