<svg width="42" height="41" viewBox="0 0 42 41" fill="none" xmlns="http://www.w3.org/2000/svg">
<path fill-rule="evenodd" clip-rule="evenodd" d="M22.8457 2.12069C22.8457 1.55825 22.6432 1.01884 22.2828 0.621136C21.9224 0.223429 21.4335 0 20.9238 0C20.4141 0 19.9253 0.223429 19.5648 0.621136C19.2044 1.01884 19.0019 1.55825 19.0019 2.12069V5.65517H16.4804C15.6988 5.65517 14.9326 5.88138 14.2536 6.30552L10.953 8.38945C10.8555 8.451 10.745 8.48318 10.6327 8.48276H4.90802C4.3983 8.48276 3.90946 8.70619 3.54903 9.10389C3.1886 9.5016 2.98612 10.041 2.98612 10.6034C2.98612 11.1659 3.1886 11.7053 3.54903 12.103C3.90946 12.5007 4.3983 12.7241 4.90802 12.7241H6.00478L0.592716 25.9912C0.43286 26.3837 0.384997 26.8205 0.455483 27.2438C0.525969 27.667 0.711468 28.0565 0.987345 28.3607L2.34549 26.8621L0.987345 28.3607V28.3635L0.992471 28.3692L0.997596 28.3748L1.01297 28.3918L1.05397 28.4342L1.16929 28.5473C1.70822 29.0457 2.2982 29.4728 2.92718 29.8197C4.54082 30.6878 6.3161 31.1274 8.11118 31.1034C10.3662 31.1034 12.0985 30.4814 13.2952 29.8197C13.9241 29.4728 14.5141 29.0457 15.0531 28.5473L15.1684 28.4342L15.2094 28.3918L15.2248 28.3748L15.2299 28.3692L15.2324 28.3635L13.8769 26.8621L15.235 28.3607C15.5109 28.0565 15.6964 27.667 15.7669 27.2438C15.8374 26.8205 15.7895 26.3837 15.6296 25.9912L10.2176 12.7241H10.6327C11.4143 12.7241 12.1805 12.4979 12.8595 12.0738L16.1626 9.98986C16.2594 9.92878 16.3689 9.89662 16.4804 9.89655H19.0019V36.7586H12.5956C12.0859 36.7586 11.597 36.9821 11.2366 37.3798C10.8762 37.7775 10.6737 38.3169 10.6737 38.8793C10.6737 39.4418 10.8762 39.9812 11.2366 40.3789C11.597 40.7766 12.0859 41 12.5956 41H29.2521C29.7618 41 30.2506 40.7766 30.611 40.3789C30.9715 39.9812 31.1739 39.4418 31.1739 38.8793C31.1739 38.3169 30.9715 37.7775 30.611 37.3798C30.2506 36.9821 29.7618 36.7586 29.2521 36.7586H22.8457V9.89655H25.3673C25.4787 9.89662 25.5883 9.92878 25.685 9.98986L28.9907 12.071C29.6672 12.5008 30.4334 12.7241 31.2149 12.7241H31.6301L26.218 25.9912C26.0582 26.3837 26.0103 26.8205 26.0808 27.2438C26.1513 27.667 26.3368 28.0565 26.6126 28.3607L27.9708 26.8621L26.6126 28.3607V28.3635L26.6178 28.3692L26.6229 28.3748L26.6383 28.3918L26.6793 28.4342L26.7946 28.5473C27.3336 29.0457 27.9235 29.4727 28.5525 29.8197C30.1661 30.6878 31.9414 31.1274 33.7365 31.1034C35.9915 31.1034 37.7238 30.4814 38.9205 29.8197C39.5495 29.4728 40.1395 29.0458 40.6784 28.5473L40.7937 28.4342L40.8193 28.4059L40.8347 28.3918L40.8501 28.3748L40.8552 28.3692L40.8577 28.3635L39.5022 26.8621L40.8603 28.3607C41.1362 28.0565 41.3217 27.667 41.3922 27.2438C41.4627 26.8205 41.4148 26.3837 41.2549 25.9912L35.8454 12.7241H36.9396C37.4494 12.7241 37.9382 12.5007 38.2986 12.103C38.6591 11.7053 38.8615 11.1659 38.8615 10.6034C38.8615 10.041 38.6591 9.5016 38.2986 9.10389C37.9382 8.70619 37.4494 8.48276 36.9396 8.48276H31.2149C31.1035 8.48269 30.994 8.45053 30.8972 8.38945L27.5915 6.30834C26.915 5.88127 26.1492 5.65615 25.3698 5.65517H22.8457V2.12069ZM4.76708 26.0901C5.4974 26.4719 6.60697 26.8621 8.11118 26.8621C9.61538 26.8621 10.725 26.4719 11.4553 26.0901L8.11118 17.8901L4.76708 26.0901ZM30.3924 26.0901C31.1227 26.4719 32.2323 26.8621 33.7365 26.8621C35.2407 26.8621 36.3503 26.4719 37.0806 26.0901L33.7365 17.8901L30.3924 26.0901Z" fill="white"/>
</svg>
