<svg width="15" height="18" viewBox="0 0 15 18" fill="none" xmlns="http://www.w3.org/2000/svg">
<path d="M10.3464 2.02972e-06C10.6766 -0.00089548 10.9377 0.295956 10.9385 0.691757L10.9393 1.36642C13.0818 1.56072 14.4971 3.25008 14.4994 5.84078L14.5078 13.424C14.5109 16.2486 12.9773 17.9865 10.5192 17.991L4.51484 18C2.07208 18.0036 0.519342 16.2243 0.51627 13.3916L0.507818 5.89745C0.504751 3.28966 1.87012 1.6048 4.01262 1.37721L4.01185 0.702552C4.01108 0.30675 4.2645 0.00899956 4.60238 0.00899956C4.94027 0.00810001 5.19368 0.304951 5.19445 0.700753L5.19522 1.33044L9.75667 1.32324L9.7559 0.693556C9.75514 0.297755 10.0085 0.000903618 10.3464 2.02972e-06ZM10.6597 12.7727H10.6521C10.2988 12.7826 10.0155 13.1253 10.0231 13.5391C10.0239 13.9529 10.3088 14.2938 10.6621 14.3028C11.0222 14.3019 11.314 13.9592 11.3133 13.5364C11.3133 13.1136 11.0207 12.7727 10.6597 12.7727ZM4.33207 12.7736C3.97883 12.7916 3.70238 13.1343 3.70314 13.5481C3.71927 13.9619 4.01108 14.2857 4.36433 14.2669C4.71066 14.2489 4.98634 13.9061 4.97022 13.4923C4.96254 13.0875 4.67764 12.7727 4.33207 12.7736ZM7.49591 12.7691C7.14267 12.788 6.86698 13.1298 6.86698 13.5436C6.88311 13.9574 7.17492 14.2803 7.52816 14.2624C7.87373 14.2435 8.15018 13.9016 8.13405 13.4869C8.12637 13.083 7.84148 12.7682 7.49591 12.7691ZM4.32823 9.53522C3.97499 9.55322 3.69931 9.89594 3.70007 10.3097C3.71543 10.7235 4.00801 11.0474 4.36125 11.0285C4.70682 11.0105 4.9825 10.6678 4.96638 10.254C4.9587 9.84917 4.67457 9.53433 4.32823 9.53522ZM7.49284 9.50374C7.1396 9.52173 6.86314 9.86446 6.86391 10.2783C6.87927 10.692 7.17185 11.015 7.52509 10.997C7.87066 10.9781 8.14634 10.6363 8.13098 10.2225C8.12253 9.81768 7.8384 9.50284 7.49284 9.50374ZM10.6567 9.50824C10.3034 9.51723 10.027 9.85007 10.0277 10.2639V10.2738C10.0354 10.6875 10.3272 11.0015 10.6812 10.9925C11.0268 10.9826 11.3025 10.6399 11.2948 10.2261C11.2787 9.83028 11.0015 9.50734 10.6567 9.50824ZM9.75821 2.70855L5.19675 2.71574L5.19752 3.44348C5.19752 3.83118 4.94487 4.13703 4.60699 4.13703C4.2691 4.13793 4.01492 3.83298 4.01492 3.44528L4.01415 2.75262C2.51671 2.92624 1.68812 3.94453 1.69042 5.89565L1.69119 6.17541L13.3175 6.15742V5.84258C13.2845 3.90855 12.4459 2.89385 10.9408 2.74273L10.9416 3.43538C10.9416 3.82219 10.6812 4.12893 10.351 4.12893C10.0132 4.12983 9.75898 3.82399 9.75898 3.43718L9.75821 2.70855Z" fill="#AE965A"/>
</svg>
