<svg width="42" height="47" viewBox="0 0 42 47" fill="none" xmlns="http://www.w3.org/2000/svg">
<path d="M36.0347 19.7116L33.7248 11.8437C33.3897 10.6984 32.7452 9.70219 31.8829 8.99649C31.0205 8.29079 29.9841 7.91153 28.921 7.9126H13.5251C12.462 7.91153 11.4256 8.29079 10.5633 8.99649C9.70088 9.70219 9.05636 10.6984 8.72128 11.8437L6.41139 19.7116C5.7978 20.0038 5.2738 20.4951 4.90497 21.1237C4.53614 21.7524 4.33889 22.4906 4.33789 23.2459V32.8293C4.33789 34.2725 5.05213 35.5164 6.09226 36.17C6.07031 36.2965 6.02641 36.4115 6.02641 36.5438V40.4959C6.02641 41.0043 6.2043 41.4918 6.52096 41.8512C6.83762 42.2107 7.2671 42.4126 7.71492 42.4126H9.40344C9.85126 42.4126 10.2807 42.2107 10.5974 41.8512C10.9141 41.4918 11.092 41.0043 11.092 40.4959V36.6626H31.3542V40.4959C31.3542 41.0043 31.532 41.4918 31.8487 41.8512C32.1654 42.2107 32.5948 42.4126 33.0427 42.4126H34.7312C35.179 42.4126 35.6085 42.2107 35.9251 41.8512C36.2418 41.4918 36.4197 41.0043 36.4197 40.4959V36.5438C36.4197 36.4115 36.3758 36.2946 36.3539 36.17C36.883 35.8425 37.325 35.3597 37.6336 34.7721C37.9422 34.1844 38.1061 33.5134 38.1082 32.8293V23.2459C38.1082 21.657 37.2505 20.2923 36.0347 19.7116ZM7.71492 32.8293V23.2459H34.7312L34.7346 32.8293H7.71492ZM13.5251 11.7459H28.9193C29.6471 11.7459 30.2921 12.2711 30.5217 13.0569L32.3892 19.4126H10.0569L11.9227 13.0569C12.0347 12.6751 12.2498 12.343 12.5374 12.1077C12.825 11.8724 13.1706 11.7458 13.5251 11.7459V11.7459Z" fill="#39281F"/>
<path d="M11.9371 30.9126C13.3359 30.9126 14.4698 29.6254 14.4698 28.0376C14.4698 26.4498 13.3359 25.1626 11.9371 25.1626C10.5383 25.1626 9.4043 26.4498 9.4043 28.0376C9.4043 29.6254 10.5383 30.9126 11.9371 30.9126Z" fill="#39281F"/>
<path d="M30.5093 30.9126C31.9082 30.9126 33.0421 29.6254 33.0421 28.0376C33.0421 26.4498 31.9082 25.1626 30.5093 25.1626C29.1105 25.1626 27.9766 26.4498 27.9766 28.0376C27.9766 29.6254 29.1105 30.9126 30.5093 30.9126Z" fill="#39281F"/>
</svg>
