<svg width="41" height="36" viewBox="0 0 41 36" fill="none" xmlns="http://www.w3.org/2000/svg">
<path d="M23.1446 34.3752V27.9457C23.1446 27.0733 23.8836 26.3667 24.7948 26.3667C28.046 26.3667 29.8148 23.1761 30.0603 16.8777H24.7948C23.8837 16.8777 23.1446 16.1701 23.1446 15.2987V1.72255C23.1446 0.850491 23.8836 0.143903 24.7948 0.143903H38.8333C39.7442 0.143903 40.4835 0.851264 40.4835 1.72255V15.2989C40.4835 18.3178 40.165 21.0882 39.5398 23.535C38.8974 26.0432 37.9114 28.236 36.6098 30.0532C35.2711 31.9206 33.5951 33.386 31.6313 34.4066C29.6526 35.4336 27.3525 35.9548 24.7941 35.9548C23.8837 35.9542 23.1446 35.2469 23.1446 34.3752ZM1.8627 26.3662C0.951675 26.3662 0.212891 27.0733 0.212891 27.9445V34.3753C0.212891 35.2469 0.951675 35.9536 1.8627 35.9536C4.41983 35.9536 6.72109 35.4323 8.69852 34.4053C10.6634 33.3849 12.3391 31.9207 13.6777 30.052C14.9802 28.2348 15.966 26.0419 16.6084 23.5324C17.234 21.0857 17.5518 18.3152 17.5518 15.2975V1.72123C17.5518 0.849167 16.8123 0.142578 15.9017 0.142578H1.8627C0.951675 0.142578 0.212891 0.849829 0.212891 1.72123V15.2975C0.212891 16.1695 0.951675 16.8765 1.8627 16.8765H7.05426C6.81176 23.1754 5.06852 26.3662 1.8627 26.3662Z" fill="#39281F" fill-opacity="0.5"/>
</svg>
