<svg width="25" height="14" viewBox="0 0 25 14" fill="none" xmlns="http://www.w3.org/2000/svg">
<path d="M12.1367 4.2C11.2687 4.2 10.4363 4.495 9.82255 5.0201C9.2088 5.5452 8.86399 6.25739 8.86399 7C8.86399 7.74261 9.2088 8.4548 9.82255 8.9799C10.4363 9.505 11.2687 9.8 12.1367 9.8C13.0047 9.8 13.8371 9.505 14.4509 8.9799C15.0646 8.4548 15.4094 7.74261 15.4094 7C15.4094 6.25739 15.0646 5.5452 14.4509 5.0201C13.8371 4.495 13.0047 4.2 12.1367 4.2ZM12.1367 11.6667C10.6901 11.6667 9.3027 11.175 8.27977 10.2998C7.25685 9.42466 6.68217 8.23768 6.68217 7C6.68217 5.76232 7.25685 4.57534 8.27977 3.70017C9.3027 2.825 10.6901 2.33333 12.1367 2.33333C13.5834 2.33333 14.9707 2.825 15.9937 3.70017C17.0166 4.57534 17.5913 5.76232 17.5913 7C17.5913 8.23768 17.0166 9.42466 15.9937 10.2998C14.9707 11.175 13.5834 11.6667 12.1367 11.6667M12.1367 0C6.68217 0 2.02399 2.90267 0.136719 7C2.02399 11.0973 6.68217 14 12.1367 14C17.5913 14 22.2494 11.0973 24.1367 7C22.2494 2.90267 17.5913 0 12.1367 0Z" fill="#AE965A" fill-opacity="0.6"/>
</svg>
