<svg width="26" height="24" viewBox="0 0 26 24" fill="none" xmlns="http://www.w3.org/2000/svg">
<path d="M13.2043 15.5984C14.6332 15.5984 15.7915 14.3346 15.7915 12.7757C15.7915 11.2169 14.6332 9.95312 13.2043 9.95312C11.7755 9.95312 10.6172 11.2169 10.6172 12.7757C10.6172 14.3346 11.7755 15.5984 13.2043 15.5984Z" fill="#39281F"/>
<path d="M14.3004 15.79H12.1052C10.2789 15.79 8.79297 17.4117 8.79297 19.404V22.3338L8.79975 22.3793L8.98442 22.4421C10.7274 23.0364 12.2419 23.2349 13.4886 23.2349C15.9228 23.2349 17.3336 22.4772 17.4207 22.4295L17.5936 22.3333L17.6114 22.3338V19.4038C17.6127 17.4117 16.1273 15.79 14.3004 15.79Z" fill="#39281F"/>
<path d="M7.92161 9.10682C10.2266 9.10682 12.0952 7.06819 12.0952 4.55341C12.0952 2.03863 10.2266 0 7.92161 0C5.61662 0 3.74805 2.03863 3.74805 4.55341C3.74805 7.06819 5.61662 9.10682 7.92161 9.10682Z" fill="#39281F"/>
<path d="M18.4839 9.10682C20.7889 9.10682 22.6569 7.06737 22.6569 4.55286C22.6569 2.03918 20.7881 0 18.4839 0C16.1784 0 14.3105 2.03863 14.3105 4.55286C14.3105 7.06709 16.1784 9.10682 18.4839 9.10682Z" fill="#39281F"/>
<path d="M11.1748 15.3468C10.5122 14.7234 10.0909 13.8029 10.0909 12.7761C10.0909 11.5168 10.7238 10.4175 11.6595 9.83119C11.0502 9.56666 10.3879 9.41699 9.69315 9.41699H6.15174C3.20555 9.41672 0.808594 12.0329 0.808594 15.2467V19.9728L0.819398 20.0466L1.11763 20.1477C3.8769 21.0885 6.27887 21.4122 8.26779 21.424V19.4046C8.26779 17.4462 9.50773 15.8026 11.1748 15.3468Z" fill="#39281F"/>
<path d="M20.2548 9.41602H16.7139C16.0191 9.41602 15.3576 9.56568 14.748 9.83021C15.6845 10.4166 16.3174 11.5152 16.3174 12.7751C16.3174 13.8014 15.8958 14.7219 15.2337 15.3452C15.901 15.5264 16.5154 15.899 17.0146 16.4439C17.7402 17.2361 18.14 18.2876 18.1397 19.4044V21.4233C20.1286 21.4115 22.5309 21.0875 25.2896 20.147L25.5879 20.0459L25.5989 19.9721V15.246C25.5979 12.0322 23.201 9.41602 20.2548 9.41602Z" fill="#39281F"/>
</svg>
