<svg width="37" height="36" viewBox="0 0 37 36" fill="none" xmlns="http://www.w3.org/2000/svg">
<path d="M26.6547 8C27.2441 8 27.8093 8.23413 28.2261 8.65087C28.6428 9.06762 28.877 9.63285 28.877 10.2222V25.7778C28.877 26.3671 28.6428 26.9324 28.2261 27.3491C27.8093 27.7659 27.2441 28 26.6547 28H11.0992C10.5098 28 9.94457 27.7659 9.52783 27.3491C9.11108 26.9324 8.87695 26.3671 8.87695 25.7778V10.2222C8.87695 9.63285 9.11108 9.06762 9.52783 8.65087C9.94457 8.23413 10.5098 8 11.0992 8H26.6547ZM26.0992 25.2222V19.3333C26.0992 18.3727 25.7176 17.4513 25.0383 16.772C24.359 16.0927 23.4376 15.7111 22.477 15.7111C21.5325 15.7111 20.4325 16.2889 19.8992 17.1556V15.9222H16.7992V25.2222H19.8992V19.7444C19.8992 18.8889 20.5881 18.1889 21.4436 18.1889C21.8562 18.1889 22.2518 18.3528 22.5436 18.6445C22.8353 18.9362 22.9992 19.3319 22.9992 19.7444V25.2222H26.0992ZM13.1881 14.1778C13.6831 14.1778 14.1579 13.9811 14.508 13.631C14.8581 13.281 15.0547 12.8062 15.0547 12.3111C15.0547 11.2778 14.2214 10.4333 13.1881 10.4333C12.69 10.4333 12.2124 10.6312 11.8603 10.9833C11.5081 11.3355 11.3103 11.8131 11.3103 12.3111C11.3103 13.3444 12.1547 14.1778 13.1881 14.1778ZM14.7325 25.2222V15.9222H11.6547V25.2222H14.7325Z" fill="#AE965A"/>
</svg>
