<?xml version="1.0" encoding="utf-8"?>
<!-- Svg Vector Icons : http://www.onlinewebfonts.com/icon -->
<!DOCTYPE svg PUBLIC "-//W3C//DTD SVG 1.1//EN" "http://www.w3.org/Graphics/SVG/1.1/DTD/svg11.dtd">
<svg version="1.1" xmlns="http://www.w3.org/2000/svg" xmlns:xlink="http://www.w3.org/1999/xlink" x="0px" y="0px" viewBox="0 0 1000 1000" enable-background="new 0 0 1000 1000" xml:space="preserve">
<metadata> Svg Vector Icons : http://www.onlinewebfonts.com/icon </metadata>
<g><path d="M809.5,409.8c0,14.2-11.6,25.8-25.8,25.8H216.3c-14.2,0-25.8-11.6-25.8-25.8c0-14.2,11.6-25.8,25.8-25.8h567.4C797.9,384,809.5,395.6,809.5,409.8L809.5,409.8z M626.4,513H216.3c-14.2,0-25.8,11.6-25.8,25.8s11.6,25.8,25.8,25.8h410.1c14.2,0,25.8-11.6,25.8-25.8S640.6,513,626.4,513L626.4,513z M783.7,255.1H216.3c-14.2,0-25.8,11.6-25.8,25.8c0,14.2,11.6,25.8,25.8,25.8h567.4c14.2,0,25.8-11.6,25.8-25.8C809.5,266.7,797.9,255.1,783.7,255.1L783.7,255.1z M990,100.4v618.9c0,14.2-11.6,25.8-25.8,25.8H461.3L285.9,917.9c-7.7,7.7-43.8,18.1-43.8-18.1V745.1H35.8c-14.2,0-25.8-11.6-25.8-25.8V100.4c0-14.2,11.6-25.8,25.8-25.8h928.4C978.4,74.6,990,86.2,990,100.4L990,100.4z M938.4,126.1H61.6v567.4h206.3c14.2,0,25.8,11.6,25.8,25.8v118.6l139.3-136.7c5.2-5.2,11.6-7.7,18.1-7.7h487.4V126.1L938.4,126.1z" fill='#AE965A'/></g>
</svg>