<svg width="16" height="15" viewBox="0 0 16 15" fill="#AE965A" xmlns="http://www.w3.org/2000/svg">
<path d="M15.4901 13.9218L10.6207 9.05246C11.3764 8.07559 11.7851 6.88122 11.7851 5.62498C11.7851 4.12123 11.1982 2.71124 10.137 1.64812C9.07574 0.584997 7.662 0 6.16013 0C4.65826 0 3.24452 0.586872 2.18327 1.64812C1.12015 2.70936 0.535156 4.12123 0.535156 5.62498C0.535156 7.12684 1.12203 8.54059 2.18327 9.60183C3.24452 10.665 4.65639 11.25 6.16013 11.25C7.41638 11.25 8.60887 10.8412 9.58574 10.0875L14.4551 14.9549C14.4694 14.9692 14.4863 14.9806 14.505 14.9883C14.5236 14.996 14.5436 15 14.5638 15C14.584 15 14.604 14.996 14.6227 14.9883C14.6414 14.9806 14.6583 14.9692 14.6726 14.9549L15.4901 14.1393C15.5044 14.125 15.5157 14.1081 15.5234 14.0894C15.5312 14.0708 15.5352 14.0508 15.5352 14.0306C15.5352 14.0104 15.5312 13.9904 15.5234 13.9717C15.5157 13.953 15.5044 13.9361 15.4901 13.9218ZM9.13012 8.59496C8.33512 9.38808 7.28138 9.82496 6.16013 9.82496C5.03889 9.82496 3.98514 9.38808 3.19014 8.59496C2.39702 7.79997 1.96015 6.74622 1.96015 5.62498C1.96015 4.50373 2.39702 3.44811 3.19014 2.65499C3.98514 1.86187 5.03889 1.42499 6.16013 1.42499C7.28138 1.42499 8.337 1.85999 9.13012 2.65499C9.92324 3.44999 10.3601 4.50373 10.3601 5.62498C10.3601 6.74622 9.92324 7.80184 9.13012 8.59496Z" fill="#AE965A"/>
</svg>