<?xml version="1.0" encoding="iso-8859-1"?>
<!-- Generator: Adobe Illustrator 19.0.0, SVG Export Plug-In . SVG Version: 6.00 Build 0)  -->
<svg version="1.1" id="Layer_1" xmlns="http://www.w3.org/2000/svg" xmlns:xlink="http://www.w3.org/1999/xlink" x="0px" y="0px"
	 viewBox="0 0 512 512" style="enable-background:new 0 0 512 512;" xml:space="preserve">
<g>
	<g>
		<path style="fill:#979797;" d="M490.259,468.518h-39.134V330.463c0-11.958-9.783-21.741-21.741-21.741h-35.873V43.482h17.393
			c11.958,0,21.741-9.783,21.741-21.741S422.862,0,410.904,0H100.008C88.051,0,78.268,9.783,78.268,21.741
			s9.783,21.741,21.741,21.741h17.393v265.24H82.616c-11.958,0-21.741,9.783-21.741,21.741v138.055H21.741
			C9.783,468.518,0,478.302,0,490.259S9.783,512,21.741,512h60.875h345.682h60.875C501.13,512,512,502.217,512,490.259
			S502.217,468.518,490.259,468.518z M159.796,133.707H350.03v60.875H159.796V133.707z M350.03,43.482v46.743H159.796V43.482H350.03
			z M159.796,238.064H350.03v70.658H159.796V238.064z M103.27,351.117h35.873h232.628h35.873v117.401H277.197v-42.395
			c0-11.958-9.783-21.741-21.741-21.741c-11.958,0-21.741,9.783-21.741,21.741v42.395H103.27V351.117z"/>
	</g>
</g>
<g>
</g>
<g>
</g>
<g>
</g>
<g>
</g>
<g>
</g>
<g>
</g>
<g>
</g>
<g>
</g>
<g>
</g>
<g>
</g>
<g>
</g>
<g>
</g>
<g>
</g>
<g>
</g>
<g>
</g>
</svg>
