<svg width="23" height="20" viewBox="0 0 23 20" fill="none" xmlns="http://www.w3.org/2000/svg">
<path d="M22.877 2.73529C22.0672 3.12647 21.1944 3.38353 20.29 3.50647C21.2154 2.91412 21.9305 1.97529 22.267 0.846471C21.3942 1.40529 20.4267 1.79647 19.4066 2.02C18.5758 1.05882 17.4085 0.5 16.0835 0.5C13.6121 0.5 11.593 2.64588 11.593 5.29471C11.593 5.67471 11.6351 6.04353 11.7087 6.39C7.96491 6.18882 4.63126 4.27765 2.41233 1.38294C2.02322 2.08706 1.80238 2.91412 1.80238 3.78588C1.80238 5.45118 2.5911 6.92647 3.81099 7.76471C3.06433 7.76471 2.37026 7.54118 1.76032 7.20588C1.76032 7.20588 1.76032 7.20588 1.76032 7.23941C1.76032 9.56412 3.31672 11.5088 5.37791 11.9447C4.99932 12.0565 4.59971 12.1124 4.18957 12.1124C3.90563 12.1124 3.6217 12.0788 3.34827 12.0229C3.91615 13.9118 5.5672 15.32 7.55477 15.3535C6.0194 16.65 4.07389 17.41 1.94961 17.41C1.59206 17.41 1.23451 17.3876 0.876953 17.3429C2.87504 18.7065 5.25171 19.5 7.79665 19.5C16.0835 19.5 20.637 12.1906 20.637 5.85353C20.637 5.64118 20.637 5.44 20.6265 5.22765C21.5098 4.55706 22.267 3.70765 22.877 2.73529Z" fill="#AE965A"/>
</svg>
