<svg width="39" height="37" viewBox="0 0 39 37" fill="none" xmlns="http://www.w3.org/2000/svg">
<path d="M19.5 31.5333C14.8125 31.5333 10.6687 29.1867 8.25 25.6667C8.30625 22 15.75 19.9833 19.5 19.9833C23.25 19.9833 30.6938 22 30.75 25.6667C28.3312 29.1867 24.1875 31.5333 19.5 31.5333ZM19.5 5.5C20.9918 5.5 22.4226 6.07946 23.4775 7.11091C24.5324 8.14236 25.125 9.54131 25.125 11C25.125 12.4587 24.5324 13.8576 23.4775 14.8891C22.4226 15.9205 20.9918 16.5 19.5 16.5C18.0082 16.5 16.5774 15.9205 15.5225 14.8891C14.4676 13.8576 13.875 12.4587 13.875 11C13.875 9.54131 14.4676 8.14236 15.5225 7.11091C16.5774 6.07946 18.0082 5.5 19.5 5.5ZM19.5 0C17.0377 0 14.5995 0.474206 12.3247 1.39554C10.0498 2.31688 7.98285 3.6673 6.24175 5.36971C2.72544 8.80788 0.75 13.471 0.75 18.3333C0.75 23.1956 2.72544 27.8588 6.24175 31.297C7.98285 32.9994 10.0498 34.3498 12.3247 35.2711C14.5995 36.1925 17.0377 36.6667 19.5 36.6667C24.4728 36.6667 29.2419 34.7351 32.7583 31.297C36.2746 27.8588 38.25 23.1956 38.25 18.3333C38.25 8.195 29.8125 0 19.5 0Z" fill="#979797"/>
</svg>
