<svg width="43" height="37" viewBox="0 0 43 37" fill="none" xmlns="http://www.w3.org/2000/svg">
<path d="M18.6668 36.1419C18.6668 36.1419 16.0273 36.1419 16.0273 33.2016C16.0273 30.2613 18.6668 21.4404 29.2247 21.4404C39.7827 21.4404 42.4221 30.2613 42.4221 33.2016C42.4221 36.1419 39.7827 36.1419 39.7827 36.1419H18.6668ZM29.2247 18.5001C31.3248 18.5001 33.3389 17.5708 34.8239 15.9166C36.3089 14.2623 37.1432 12.0187 37.1432 9.67927C37.1432 7.33983 36.3089 5.09621 34.8239 3.44197C33.3389 1.78774 31.3248 0.858398 29.2247 0.858398C27.1246 0.858398 25.1106 1.78774 23.6256 3.44197C22.1406 5.09621 21.3063 7.33983 21.3063 9.67927C21.3063 12.0187 22.1406 14.2623 23.6256 15.9166C25.1106 17.5708 27.1246 18.5001 29.2247 18.5001Z" fill="
#AE965A"/>
<path fill-rule="evenodd" clip-rule="evenodd" d="M13.9589 36.1422C13.5676 35.2243 13.3725 34.2179 13.3888 33.2019C13.3888 29.2178 15.1837 25.1161 18.4988 22.264C16.8441 21.696 15.1202 21.4183 13.3888 21.4407C2.83089 21.4407 0.191406 30.2616 0.191406 33.2019C0.191406 36.1422 2.83089 36.1422 2.83089 36.1422H13.9589Z" fill="
#AE965A"/>
<path d="M12.0694 18.5003C13.8195 18.5003 15.4979 17.7258 16.7354 16.3473C17.9729 14.9688 18.6681 13.0991 18.6681 11.1496C18.6681 9.20002 17.9729 7.33033 16.7354 5.95181C15.4979 4.57328 13.8195 3.79883 12.0694 3.79883C10.3193 3.79883 8.64091 4.57328 7.40342 5.95181C6.16592 7.33033 5.4707 9.20002 5.4707 11.1496C5.4707 13.0991 6.16592 14.9688 7.40342 16.3473C8.64091 17.7258 10.3193 18.5003 12.0694 18.5003Z" fill="
#AE965A"/>
</svg>
