<svg width="37" height="37" viewBox="0 0 37 37" fill="none" xmlns="http://www.w3.org/2000/svg">
<path d="M18.5 0C16.0705 0 13.6649 0.478517 11.4204 1.40823C9.17583 2.33794 7.13641 3.70064 5.41852 5.41852C1.9491 8.88795 0 13.5935 0 18.5C0 23.4065 1.9491 28.1121 5.41852 31.5815C7.13641 33.2994 9.17583 34.6621 11.4204 35.5918C13.6649 36.5215 16.0705 37 18.5 37C23.4065 37 28.1121 35.0509 31.5815 31.5815C35.0509 28.1121 37 23.4065 37 18.5C37 16.0705 36.5215 13.6649 35.5918 11.4204C34.6621 9.17583 33.2994 7.13641 31.5815 5.41852C29.8636 3.70064 27.8242 2.33794 25.5796 1.40823C23.3351 0.478517 20.9295 0 18.5 0ZM9.3795 30.118C10.175 28.453 15.022 26.825 18.5 26.825C21.978 26.825 26.825 28.453 27.6205 30.118C25.1045 32.116 21.941 33.3 18.5 33.3C15.059 33.3 11.8955 32.116 9.3795 30.118ZM30.266 27.4355C27.6205 24.2165 21.201 23.125 18.5 23.125C15.799 23.125 9.3795 24.2165 6.734 27.4355C4.847 24.975 3.7 21.867 3.7 18.5C3.7 10.3415 10.3415 3.7 18.5 3.7C26.6585 3.7 33.3 10.3415 33.3 18.5C33.3 21.867 32.153 24.975 30.266 27.4355ZM18.5 7.4C14.911 7.4 12.025 10.286 12.025 13.875C12.025 17.464 14.911 20.35 18.5 20.35C22.089 20.35 24.975 17.464 24.975 13.875C24.975 10.286 22.089 7.4 18.5 7.4ZM18.5 16.65C17.764 16.65 17.0582 16.3576 16.5378 15.8372C16.0174 15.3168 15.725 14.611 15.725 13.875C15.725 13.139 16.0174 12.4332 16.5378 11.9128C17.0582 11.3924 17.764 11.1 18.5 11.1C19.236 11.1 19.9418 11.3924 20.4622 11.9128C20.9826 12.4332 21.275 13.139 21.275 13.875C21.275 14.611 20.9826 15.3168 20.4622 15.8372C19.9418 16.3576 19.236 16.65 18.5 16.65Z" fill="#39281F"/>
</svg>
